<svg width="65" height="65" viewBox="0 0 65 65" fill="none" xmlns="http://www.w3.org/2000/svg">
<path d="M44.6875 55.2094L39.4266 49.9484L36.5625 52.8125L44.6875 60.9375L60.9375 44.6875L58.0734 41.8234L44.6875 55.2094ZM18.2812 34.5312H32.5V38.5938H18.2812V34.5312ZM18.2812 24.375H42.6562V28.4375H18.2812V24.375ZM18.2812 14.2188H42.6562V18.2812H18.2812V14.2188Z" fill="black"/>
<path d="M32.5 60.9375H12.1875C9.94703 60.9375 8.125 59.1155 8.125 56.875V8.125C8.125 5.88453 9.94703 4.0625 12.1875 4.0625H48.75C50.9905 4.0625 52.8125 5.88453 52.8125 8.125V38.5938H48.75V8.125H12.1875V56.875H32.5V60.9375Z" fill="black"/>
</svg>
