<svg width="65" height="65" viewBox="0 0 65 65" fill="none" xmlns="http://www.w3.org/2000/svg">
<path d="M57.5521 14.8958C57.0134 14.8958 56.4967 14.6818 56.1158 14.3009C55.7349 13.9199 55.5209 13.4033 55.5209 12.8645C55.5209 12.3258 55.7349 11.8092 56.1158 11.4282C56.4967 11.0473 57.0134 10.8333 57.5521 10.8333C58.0908 10.8333 58.6075 11.0473 58.9884 11.4282C59.3693 11.8092 59.5834 12.3258 59.5834 12.8645C59.5834 13.4033 59.3693 13.9199 58.9884 14.3009C58.6075 14.6818 58.0908 14.8958 57.5521 14.8958ZM57.5521 14.8958V25.052C57.5521 26.9425 57.5521 27.8877 57.3192 28.6541C57.0609 29.5068 56.5964 30.2826 55.9667 30.9128C55.3369 31.543 54.5615 32.0082 53.709 32.267C52.9398 32.5 51.9946 32.5 50.1042 32.5M7.44794 50.1041C7.98666 50.1041 8.50331 50.3181 8.88425 50.6991C9.26518 51.08 9.47919 51.5967 9.47919 52.1354C9.47919 52.6741 9.26518 53.1908 8.88425 53.5717C8.50331 53.9526 7.98666 54.1666 7.44794 54.1666C6.90922 54.1666 6.39256 53.9526 6.01163 53.5717C5.63069 53.1908 5.41669 52.6741 5.41669 52.1354C5.41669 51.5967 5.63069 51.08 6.01163 50.6991C6.39256 50.3181 6.90922 50.1041 7.44794 50.1041ZM7.44794 50.1041V39.9479C7.44794 38.0575 7.44794 37.1123 7.68085 36.3458C7.93909 35.4931 8.40366 34.7173 9.03339 34.0871C9.66313 33.4569 10.4386 32.9918 11.2911 32.7329C12.0602 32.5 13.0054 32.5 14.8959 32.5M14.8959 7.44788C14.8959 7.9866 14.6818 8.50325 14.3009 8.88419C13.92 9.26512 13.4033 9.47913 12.8646 9.47913C12.3259 9.47913 11.8092 9.26512 11.4283 8.88419C11.0474 8.50325 10.8334 7.9866 10.8334 7.44788C10.8334 6.90916 11.0474 6.3925 11.4283 6.01157C11.8092 5.63063 12.3259 5.41663 12.8646 5.41663C13.4033 5.41663 13.92 5.63063 14.3009 6.01157C14.6818 6.3925 14.8959 6.90916 14.8959 7.44788ZM14.8959 7.44788H25.0521C26.9425 7.44788 27.8877 7.44788 28.6542 7.68079C29.5072 7.93928 30.2832 8.40426 30.9134 9.03449C31.5436 9.66472 32.0086 10.4407 32.2671 11.2937C32.5 12.0602 32.5 13.0054 32.5 14.8958M50.1042 57.552C50.1042 57.0133 50.3182 56.4967 50.6991 56.1157C51.0801 55.7348 51.5967 55.5208 52.1354 55.5208C52.6742 55.5208 53.1908 55.7348 53.5717 56.1157C53.9527 56.4967 54.1667 57.0133 54.1667 57.552C54.1667 58.0908 53.9527 58.6074 53.5717 58.9884C53.1908 59.3693 52.6742 59.5833 52.1354 59.5833C51.5967 59.5833 51.0801 59.3693 50.6991 58.9884C50.3182 58.6074 50.1042 58.0908 50.1042 57.552ZM50.1042 57.552H39.9479C38.0575 57.552 37.1123 57.552 36.3459 57.3191C35.4932 57.0609 34.7174 56.5963 34.0872 55.9666C33.457 55.3369 32.9918 54.5614 32.7329 53.7089C32.5 52.9398 32.5 51.9945 32.5 50.1041" stroke="black" stroke-width="2" stroke-linejoin="round"/>
<path d="M15.0286 32.3672C15.0286 24.0689 15.0286 19.9197 17.6069 17.3414C20.1852 14.7631 24.3344 14.7631 32.6327 14.7631C40.9311 14.7631 45.0802 14.7631 47.6586 17.3414C50.2369 19.9197 50.2369 24.0689 50.2369 32.3672C50.2369 40.6656 50.2369 44.8147 47.6586 47.3931C45.0802 49.9714 40.9311 49.9714 32.6327 49.9714C24.3344 49.9714 20.1852 49.9714 17.6069 47.3931C15.0286 44.8147 15.0286 40.6656 15.0286 32.3672Z" stroke="black" stroke-width="2" stroke-linejoin="round"/>
<path d="M33.8515 39.2708L29.8973 27.0264C29.7602 26.64 29.5048 26.3067 29.1673 26.0738C28.8299 25.8409 28.4276 25.7203 28.0177 25.7291C27.6083 25.7209 27.2067 25.8417 26.8698 26.0746C26.5329 26.3074 26.2779 26.6404 26.1409 27.0264L22.1867 39.2708M40.6223 25.7291V39.2708M23.6411 35.2083H32.3944" stroke="black" stroke-width="2" stroke-linecap="round" stroke-linejoin="round"/>
</svg>
