<svg width="65" height="65" viewBox="0 0 65 65" fill="none" xmlns="http://www.w3.org/2000/svg">
<path d="M59.5834 32.5C59.5834 17.5418 47.4581 5.41663 32.5 5.41663C17.5419 5.41663 5.41669 17.5418 5.41669 32.5C5.41669 47.4581 17.5419 59.5833 32.5 59.5833" stroke="black" stroke-width="2" stroke-linecap="round" stroke-linejoin="round"/>
<path d="M35.2083 5.552C35.2083 5.552 43.3333 16.2499 43.3333 32.4999M29.7917 59.4478C29.7917 59.4478 21.6667 48.7499 21.6667 32.4999C21.6667 16.2499 29.7917 5.552 29.7917 5.552M7.12292 41.9791H32.5M7.12292 23.0208H57.8771" stroke="black" stroke-width="2" stroke-linecap="round" stroke-linejoin="round"/>
<path d="M59.2557 48.5251C60.5936 49.3485 60.5096 51.3499 59.1338 51.507L52.1815 52.2951L49.0642 58.5568C48.4467 59.7999 46.5373 59.1905 46.2205 57.6522L42.8215 41.088C42.5534 39.788 43.7234 38.9701 44.8528 39.6662L59.2557 48.5251Z" stroke="black" stroke-width="2"/>
</svg>
