<svg width="65" height="65" viewBox="0 0 65 65" fill="none" xmlns="http://www.w3.org/2000/svg">
<path d="M8.20024 53.0062C11.2471 50.0158 14.7883 47.6595 18.8237 45.9375C22.8591 44.2154 27.2172 43.3555 31.8981 43.3578C36.5791 43.36 40.9383 44.2199 44.976 45.9375C49.0137 47.655 52.5537 50.0113 55.5961 53.0062V10.2823C55.5961 9.76317 55.3794 9.28583 54.9461 8.85024C54.5127 8.41464 54.0343 8.19798 53.5106 8.20024H10.2857C9.7643 8.20024 9.28583 8.4169 8.85024 8.85024C8.41464 9.28357 8.19798 9.76204 8.20024 10.2857V53.0062ZM31.8981 35.5442C34.7374 35.5442 37.1399 34.5613 39.1057 32.5955C41.0715 30.6297 42.0544 28.2272 42.0544 25.388C42.0544 22.5488 41.0715 20.1462 39.1057 18.1804C37.1399 16.2146 34.7374 15.2317 31.8981 15.2317C29.0589 15.2317 26.6564 16.2146 24.6906 18.1804C22.7248 20.1462 21.7419 22.5488 21.7419 25.388C21.7419 28.2272 22.7248 30.6297 24.6906 32.5955C26.6564 34.5613 29.0589 35.5442 31.8981 35.5442ZM10.2857 58.9815C8.7261 58.9815 7.42497 58.4601 6.38227 57.4174C5.33956 56.3747 4.81708 55.0725 4.81482 53.5106V10.2857C4.81482 8.7261 5.3373 7.42497 6.38227 6.38227C7.42723 5.33956 8.72836 4.81708 10.2857 4.81482H53.514C55.0713 4.81482 56.3725 5.3373 57.4174 6.38227C58.4624 7.42723 58.9837 8.72836 58.9815 10.2857V53.514C58.9815 55.0713 58.4601 56.3725 57.4174 57.4174C56.3747 58.4624 55.0725 58.9837 53.5106 58.9815H10.2857ZM10.3297 55.5961H53.4633C50.1997 52.5266 46.7421 50.2832 43.0903 48.8659C39.4386 47.4485 35.7079 46.7409 31.8981 46.7432C28.1742 46.7432 24.4581 47.4519 20.75 48.8692C17.0418 50.2866 13.5684 52.5289 10.3297 55.5961ZM31.8981 32.1588C30.0542 32.1588 28.4642 31.4919 27.1281 30.158C25.7942 28.8219 25.1273 27.2319 25.1273 25.388C25.1273 23.5441 25.7942 21.9541 27.1281 20.6179C28.4642 19.2841 30.0542 18.6172 31.8981 18.6172C33.7421 18.6172 35.3321 19.2841 36.6682 20.6179C38.0021 21.9541 38.669 23.5441 38.669 25.388C38.669 27.2319 38.0021 28.8219 36.6682 30.158C35.3343 31.4942 33.7443 32.1611 31.8981 32.1588Z" fill="black"/>
</svg>
