<svg width="66" height="66" viewBox="0 0 66 66" fill="none" xmlns="http://www.w3.org/2000/svg">
<path d="M35.75 57.75H16.5C11.3135 57.75 8.723 57.75 7.1115 56.1385C5.5 54.527 5.5 51.9365 5.5 46.75C5.5 41.5635 5.5 38.973 7.1115 37.3615C8.723 35.75 11.3135 35.75 16.5 35.75H49.5C54.6865 35.75 57.277 35.75 58.8885 37.3615C60.5 38.973 60.5 41.5635 60.5 46.75C60.5 51.9365 60.5 54.527 58.8885 56.1385C57.277 57.75 54.6865 57.75 49.5 57.75H46.75M30.25 5.5H49.5C54.6865 5.5 57.277 5.5 58.8885 7.1115C60.5 8.723 60.5 11.3135 60.5 16.5C60.5 21.6865 60.5 24.277 58.8885 25.8885C57.277 27.5 54.6865 27.5 49.5 27.5H16.5C11.3135 27.5 8.723 27.5 7.1115 25.8885C5.5 24.277 5.5 21.6865 5.5 16.5C5.5 11.3135 5.5 8.723 7.1115 7.1115C8.723 5.5 11.3135 5.5 16.5 5.5H19.25M30.25 16.5H49.5M16.5 16.5H22M30.25 46.75H49.5M16.5 46.75H22" stroke="black" stroke-width="2" stroke-linecap="round"/>
</svg>
