<svg width="65" height="65" viewBox="0 0 65 65" fill="none" xmlns="http://www.w3.org/2000/svg">
<path d="M62.6786 20.8929V51.0714C62.6786 52.6106 62.0671 54.0868 60.9787 55.1752C59.8903 56.2636 58.4142 56.875 56.875 56.875M56.875 56.875C55.3358 56.875 53.8596 56.2636 52.7712 55.1752C51.6829 54.0868 51.0714 52.6106 51.0714 51.0714V10.4464C51.0714 9.83075 50.8268 9.24028 50.3915 8.80493C49.9561 8.36958 49.3657 8.125 48.75 8.125H4.64284C4.02716 8.125 3.43669 8.36958 3.00134 8.80493C2.56599 9.24028 2.32141 9.83075 2.32141 10.4464V52.2321C2.32141 53.4635 2.81057 54.6444 3.68127 55.5151C4.55198 56.3858 5.73291 56.875 6.96427 56.875H56.875Z" stroke="black" stroke-width="2" stroke-linecap="round" stroke-linejoin="round"/>
<path d="M16.25 45.2679H37.1429M37.1429 19.7322H16.25V31.3393H37.1429V19.7322Z" stroke="black" stroke-width="2" stroke-linecap="round" stroke-linejoin="round"/>
</svg>
